<?xml version="1.0" encoding="utf-8"?>
<!-- Generator: Adobe Illustrator 16.0.3, SVG Export Plug-In . SVG Version: 6.00 Build 0)  -->
<!DOCTYPE svg PUBLIC "-//W3C//DTD SVG 1.1//EN" "http://www.w3.org/Graphics/SVG/1.1/DTD/svg11.dtd">
<svg version="1.1" xmlns="http://www.w3.org/2000/svg" xmlns:xlink="http://www.w3.org/1999/xlink" x="0px" y="0px" width="1000px"
	 height="1500px" viewBox="0 0 1000 1500" enable-background="new 0 0 1000 1500" xml:space="preserve">
<g id="Layer_1" display="none">
	<rect x="78.621" y="470.408" display="inline" fill="#ED696F" width="256.478" height="256.478"/>
	<rect x="78.621" y="767.64" display="inline" fill="#ED696F" width="256.478" height="256.478"/>
	<rect x="78.621" y="172.174" display="inline" fill="#ED696F" width="256.478" height="256.478"/>
	<polygon display="inline" fill="#C9DE7D" points="372.761,717.311 498.794,465.245 624.826,717.311 	"/>
	<circle display="inline" fill="#59C4BF" cx="498.447" cy="300.57" r="130.494"/>
	<rect x="78.621" y="-0.115" display="inline" fill="#ED696F" width="256.478" height="130.484"/>
	<rect x="370.847" y="-0.115" display="inline" fill="#ED696F" width="256.478" height="130.484"/>
	<rect x="666.079" y="-0.115" display="inline" fill="#ED696F" width="256.478" height="130.484"/>
	<rect x="666.079" y="172.174" display="inline" fill="#ED696F" width="256.478" height="256.478"/>
	<rect x="666.079" y="470.406" display="inline" fill="#ED696F" width="256.478" height="256.478"/>
	<rect x="371.848" y="767.64" display="inline" fill="#ED696F" width="256.478" height="256.478"/>
	<rect x="666.079" y="767.64" display="inline" fill="#ED696F" width="256.478" height="256.478"/>
</g>
<g id="Layer_3" display="none">
	<circle display="inline" fill="#333333" cx="561.763" cy="39.913" r="8.294"/>
	<circle display="inline" fill="#333333" cx="161.419" cy="62.64" r="8.294"/>
	<circle display="inline" fill="#333333" cx="191.099" cy="333.577" r="8.294"/>
	<circle display="inline" fill="#333333" cx="140.74" cy="603.726" r="8.294"/>
	<circle display="inline" fill="#333333" cx="837.923" cy="83.483" r="8.294"/>
	<circle display="inline" fill="#333333" cx="501.611" cy="293.733" r="8.294"/>
	<circle display="inline" fill="#333333" cx="240.595" cy="823.054" r="8.294"/>
	<circle display="inline" fill="#333333" cx="787.884" cy="343.687" r="8.294"/>
	<circle display="inline" fill="#333333" cx="847.931" cy="623.905" r="8.294"/>
	<circle display="inline" fill="#333333" cx="867.947" cy="844.077" r="8.294"/>
	<circle display="inline" fill="#333333" cx="457.626" cy="944.155" r="8.294"/>
	<circle display="inline" fill="#333333" cx="527.681" cy="663.937" r="8.294"/>
</g>
<g id="Layer_2" display="none">
	<line display="inline" fill="none" stroke="#333333" stroke-miterlimit="10" x1="560.085" y1="40.624" x2="161.105" y2="61.623"/>
	<line display="inline" fill="none" stroke="#333333" stroke-miterlimit="10" x1="836.634" y1="83.141" x2="563.894" y2="40.384"/>
	<line display="inline" fill="none" stroke="#333333" stroke-miterlimit="10" x1="190.605" y1="332.61" x2="161.622" y2="63.677"/>
	
		<line display="inline" fill="none" stroke="#333333" stroke-miterlimit="10" x1="141.606" y1="603.096" x2="239.854" y2="822.833"/>
	<path display="inline" fill="none" stroke="#333333" stroke-miterlimit="10" d="M840.571,654.093"/>
	<path display="inline" fill="none" stroke="#333333" stroke-miterlimit="10" d="M537.586,523.6"/>
	<path display="inline" fill="none" stroke="#333333" stroke-miterlimit="10" d="M240.601,822.085"/>
	<path display="inline" fill="none" stroke="#333333" stroke-miterlimit="10" d="M840.571,654.093"/>
	
		<line display="inline" fill="none" stroke="#333333" stroke-miterlimit="10" x1="240.601" y1="822.085" x2="457.453" y2="942.948"/>
	<path display="inline" fill="none" stroke="#333333" stroke-miterlimit="10" d="M773.074,862.583"/>
	<path display="inline" fill="none" stroke="#333333" stroke-miterlimit="10" d="M461.09,922.58"/>
	<path display="inline" fill="none" stroke="#333333" stroke-miterlimit="10" d="M773.074,862.58"/>
	<line display="inline" fill="none" stroke="#333333" stroke-miterlimit="10" x1="190.313" y1="336.05" x2="140.444" y2="601.824"/>
	
		<line display="inline" fill="none" stroke="#333333" stroke-miterlimit="10" x1="460.453" y1="944.448" x2="866.933" y2="845.453"/>
	<line display="inline" fill="none" stroke="#333333" stroke-miterlimit="10" x1="788.937" y1="344.479" x2="838.434" y2="84.992"/>
	
		<line display="inline" fill="none" stroke="#333333" stroke-miterlimit="10" x1="847.434" y1="621.965" x2="787.938" y2="344.479"/>
	
		<line display="inline" fill="none" stroke="#333333" stroke-miterlimit="10" x1="868.433" y1="843.954" x2="847.434" y2="624.965"/>
	
		<line display="inline" fill="none" stroke="#333333" stroke-miterlimit="10" x1="527.946" y1="663.963" x2="502.451" y2="294.981"/>
	<line display="inline" fill="none" stroke="#333333" stroke-miterlimit="10" x1="501.948" y1="293.482" x2="561.446" y2="40.491"/>
	<line display="inline" fill="none" stroke="#333333" stroke-miterlimit="10" x1="503.95" y1="293.482" x2="836.934" y2="83.493"/>
	
		<line display="inline" fill="none" stroke="#333333" stroke-miterlimit="10" x1="500.951" y1="296.482" x2="785.937" y2="344.479"/>
	<line display="inline" fill="none" stroke="#333333" stroke-miterlimit="10" x1="162.467" y1="62.491" x2="503.95" y2="291.982"/>
	<line display="inline" fill="none" stroke="#333333" stroke-miterlimit="10" x1="191.966" y1="333.98" x2="500.951" y2="293.482"/>
	
		<line display="inline" fill="none" stroke="#333333" stroke-miterlimit="10" x1="140.969" y1="602.466" x2="500.951" y2="293.482"/>
	
		<line display="inline" fill="none" stroke="#333333" stroke-miterlimit="10" x1="239.964" y1="822.955" x2="500.951" y2="293.482"/>
	
		<line display="inline" fill="none" stroke="#333333" stroke-miterlimit="10" x1="457.453" y1="941.449" x2="500.951" y2="293.482"/>
	
		<line display="inline" fill="none" stroke="#333333" stroke-miterlimit="10" x1="866.933" y1="842.454" x2="500.951" y2="293.482"/>
	
		<line display="inline" fill="none" stroke="#333333" stroke-miterlimit="10" x1="847.434" y1="624.965" x2="500.951" y2="293.482"/>
	<line display="inline" fill="none" stroke="#333333" stroke-miterlimit="10" x1="527.946" y1="663.963" x2="562.447" y2="41.494"/>
	<line display="inline" fill="none" stroke="#333333" stroke-miterlimit="10" x1="527.946" y1="663.963" x2="836.934" y2="83.492"/>
	
		<line display="inline" fill="none" stroke="#333333" stroke-miterlimit="10" x1="527.946" y1="663.963" x2="787.437" y2="345.979"/>
	
		<line display="inline" fill="none" stroke="#333333" stroke-miterlimit="10" x1="527.946" y1="663.963" x2="847.434" y2="623.465"/>
	
		<line display="inline" fill="none" stroke="#333333" stroke-miterlimit="10" x1="527.946" y1="663.963" x2="865.433" y2="842.454"/>
	
		<line display="inline" fill="none" stroke="#333333" stroke-miterlimit="10" x1="527.946" y1="663.963" x2="458.953" y2="942.949"/>
	
		<line display="inline" fill="none" stroke="#333333" stroke-miterlimit="10" x1="527.946" y1="663.963" x2="241.464" y2="822.955"/>
	
		<line display="inline" fill="none" stroke="#333333" stroke-miterlimit="10" x1="527.946" y1="663.963" x2="140.969" y2="603.966"/>
	
		<line display="inline" fill="none" stroke="#333333" stroke-miterlimit="10" x1="527.946" y1="663.963" x2="191.966" y2="333.979"/>
	<line display="inline" fill="none" stroke="#333333" stroke-miterlimit="10" x1="527.946" y1="663.963" x2="161.968" y2="63.993"/>
</g>
<g id="Layer_10" display="none">
	<circle display="inline" fill="#C9DE7D" cx="203.765" cy="303.263" r="129.597"/>
	<rect x="112.135" y="211.633" display="inline" fill="#EE6970" width="183.262" height="183.261"/>
	<polygon display="inline" fill="#5AC4BF" points="112.135,394.894 203.765,211.632 295.396,394.894 	"/>
	<circle display="inline" fill="#C9DE7D" cx="498.996" cy="303.263" r="129.597"/>
	<rect x="407.366" y="211.633" display="inline" fill="#EE6970" width="183.262" height="183.261"/>
	<polygon display="inline" fill="#5AC4BF" points="407.366,394.894 498.997,211.632 590.628,394.894 	"/>
	<circle display="inline" fill="#C9DE7D" cx="793.227" cy="303.263" r="129.597"/>
	<rect x="701.597" y="211.633" display="inline" fill="#EE6970" width="183.262" height="183.261"/>
	<polygon display="inline" fill="#5AC4BF" points="701.597,394.894 793.228,211.632 884.858,394.894 	"/>
	<circle display="inline" fill="#EE6970" cx="203.765" cy="601.495" r="129.597"/>
	<rect x="112.135" y="509.865" display="inline" fill="#5AC4BF" width="183.262" height="183.261"/>
	<polygon display="inline" fill="#C9DE7D" points="112.135,693.126 203.765,509.864 295.396,693.126 	"/>
	<circle display="inline" fill="#EE6970" cx="498.996" cy="601.495" r="129.597"/>
	<rect x="407.366" y="509.865" display="inline" fill="#5AC4BF" width="183.262" height="183.261"/>
	<polygon display="inline" fill="#C9DE7D" points="407.366,693.126 498.997,509.864 590.628,693.126 	"/>
	<circle display="inline" fill="#EE6970" cx="793.227" cy="601.495" r="129.597"/>
	<rect x="701.597" y="509.865" display="inline" fill="#5AC4BF" width="183.262" height="183.261"/>
	<polygon display="inline" fill="#C9DE7D" points="701.597,693.126 793.228,509.864 884.858,693.126 	"/>
	<g display="inline">
		<circle fill="#5AC4BF" cx="203.765" cy="898.727" r="129.597"/>
		<rect x="112.135" y="807.097" fill="#EE6970" width="183.262" height="183.261"/>
		<polygon fill="#C9DE7D" points="112.135,990.357 203.765,807.096 295.396,990.357 		"/>
	</g>
	<g display="inline">
		<circle fill="#5AC4BF" cx="498.996" cy="898.727" r="129.597"/>
		<rect x="407.366" y="807.097" fill="#EE6970" width="183.262" height="183.261"/>
		<polygon fill="#C9DE7D" points="407.366,990.357 498.997,807.096 590.628,990.357 		"/>
	</g>
	<g display="inline">
		<circle fill="#5AC4BF" cx="793.227" cy="898.727" r="129.597"/>
		<rect x="701.597" y="807.097" fill="#EE6970" width="183.262" height="183.261"/>
		<polygon fill="#C9DE7D" points="701.597,990.357 793.228,807.096 884.858,990.357 		"/>
	</g>
	<g display="inline">
		<defs>
			<rect id="SVGID_1_" x="27.608" width="941.953" height="142.619"/>
		</defs>
		<clipPath id="SVGID_2_">
			<use xlink:href="#SVGID_1_"  overflow="visible"/>
		</clipPath>
		<g clip-path="url(#SVGID_2_)">
			<circle fill="#5AC4BF" cx="203.765" cy="2.027" r="129.597"/>
			<rect x="112.135" y="-89.603" fill="#EE6970" width="183.262" height="183.261"/>
			<polygon fill="#C9DE7D" points="112.135,93.658 203.765,-89.604 295.396,93.658 			"/>
		</g>
		<g clip-path="url(#SVGID_2_)">
			<circle fill="#5AC4BF" cx="498.996" cy="2.027" r="129.597"/>
			<rect x="407.366" y="-89.603" fill="#EE6970" width="183.262" height="183.261"/>
			<polygon fill="#C9DE7D" points="407.366,93.658 498.997,-89.604 590.628,93.658 			"/>
		</g>
		<g clip-path="url(#SVGID_2_)">
			<circle fill="#5AC4BF" cx="793.227" cy="2.027" r="129.597"/>
			<rect x="701.597" y="-89.603" fill="#EE6970" width="183.262" height="183.261"/>
			<polygon fill="#C9DE7D" points="701.597,93.658 793.228,-89.604 884.858,93.658 			"/>
		</g>
	</g>
</g>
<g id="Layer_1_copy_2">
	<path fill="#59C4BF" d="M333.367,0c0,69.947-56.703,126.651-126.651,126.651S80.063,69.947,80.063,0"/>
	<path fill="#59C4BF" d="M626.652,0c0,69.947-56.703,126.651-126.651,126.651c-69.949,0-126.654-56.704-126.654-126.651"/>
	<polygon fill="#C9DE7D" points="81.533,419.078 207.566,167.013 333.599,419.078 	"/>
	<rect x="78.621" y="460.4" fill="#ED696F" width="256.478" height="256.478"/>
	<rect x="78.621" y="757.632" fill="#ED696F" width="256.478" height="256.478"/>
	<rect x="78.621" y="1054.863" fill="#ED696F" width="256.478" height="256.478"/>
	<path fill="#59C4BF" d="M919.882,0c0,69.947-56.703,126.651-126.65,126.651c-69.949,0-126.654-56.704-126.654-126.651"/>
	<polygon fill="#C9DE7D" points="371.76,419.078 497.793,167.013 623.825,419.078 	"/>
</g>
<g id="Layer_3_copy_2">
	<circle fill="#333333" cx="561.763" cy="39.913" r="8.294"/>
	<circle fill="#333333" cx="161.419" cy="62.64" r="8.294"/>
	<circle fill="#333333" cx="191.099" cy="333.577" r="8.294"/>
	<circle fill="#333333" cx="140.74" cy="603.726" r="8.294"/>
	<circle fill="#333333" cx="837.923" cy="83.483" r="8.294"/>
	<circle fill="#333333" cx="501.611" cy="293.733" r="8.294"/>
	<circle fill="#333333" cx="240.595" cy="823.054" r="8.294"/>
	<circle fill="#333333" cx="171.283" cy="1253.616" r="8.294"/>
</g>
<g id="Layer_2_copy_2">
	<line fill="none" stroke="#333333" stroke-miterlimit="10" x1="560.085" y1="40.624" x2="161.105" y2="61.623"/>
	<line fill="none" stroke="#333333" stroke-miterlimit="10" x1="836.634" y1="83.141" x2="563.894" y2="40.384"/>
	<line fill="none" stroke="#333333" stroke-miterlimit="10" x1="190.605" y1="332.61" x2="501.888" y2="292.854"/>
	<line fill="none" stroke="#333333" stroke-miterlimit="10" x1="141.606" y1="603.096" x2="239.854" y2="822.833"/>
	<path fill="none" stroke="#333333" stroke-miterlimit="10" d="M840.571,654.093"/>
	<path fill="none" stroke="#333333" stroke-miterlimit="10" d="M537.586,523.6"/>
	<path fill="none" stroke="#333333" stroke-miterlimit="10" d="M240.601,822.085"/>
	<path fill="none" stroke="#333333" stroke-miterlimit="10" d="M840.571,654.093"/>
	<line fill="none" stroke="#333333" stroke-miterlimit="10" x1="240.601" y1="822.085" x2="172.365" y2="1250.838"/>
	<path fill="none" stroke="#333333" stroke-miterlimit="10" d="M773.074,862.583"/>
	<path fill="none" stroke="#333333" stroke-miterlimit="10" d="M461.09,922.58"/>
	<path fill="none" stroke="#333333" stroke-miterlimit="10" d="M171.604,1254.061"/>
	<path fill="none" stroke="#333333" stroke-miterlimit="10" d="M773.074,862.58"/>
</g>
<g id="Layer_1_copy" display="none">
	<path display="inline" fill="#59C4BF" d="M333.367,0c0,69.947-56.703,126.651-126.651,126.651S80.063,69.947,80.063,0"/>
	<path display="inline" fill="#59C4BF" d="M626.652,0c0,69.947-56.703,126.651-126.651,126.651
		c-69.949,0-126.654-56.704-126.654-126.651"/>
	<polygon display="inline" fill="#C9DE7D" points="81.533,419.078 207.566,167.013 333.599,419.078 	"/>
	<rect x="78.621" y="460.4" display="inline" fill="#ED696F" width="256.478" height="256.478"/>
	<rect x="78.621" y="757.632" display="inline" fill="#ED696F" width="256.478" height="256.478"/>
	<rect x="78.621" y="1054.863" display="inline" fill="#ED696F" width="256.478" height="256.478"/>
	<rect x="371.85" y="460.4" display="inline" fill="#ED696F" width="256.478" height="256.478"/>
	<rect x="371.85" y="757.632" display="inline" fill="#ED696F" width="256.478" height="256.478"/>
	<rect x="665.08" y="460.4" display="inline" fill="#ED696F" width="256.478" height="256.478"/>
	<rect x="665.08" y="757.632" display="inline" fill="#ED696F" width="256.478" height="256.478"/>
</g>
<g id="Layer_3_copy" display="none">
	<circle display="inline" fill="#333333" cx="561.763" cy="39.913" r="8.294"/>
	<circle display="inline" fill="#333333" cx="161.419" cy="62.64" r="8.294"/>
	<circle display="inline" fill="#333333" cx="191.099" cy="333.577" r="8.294"/>
	<circle display="inline" fill="#333333" cx="140.74" cy="603.726" r="8.294"/>
	<circle display="inline" fill="#333333" cx="537.689" cy="523.827" r="8.294"/>
	<circle display="inline" fill="#333333" cx="841.876" cy="654.015" r="8.294"/>
	<circle display="inline" fill="#333333" cx="240.595" cy="823.054" r="8.294"/>
	<circle display="inline" fill="#333333" cx="461.486" cy="923.171" r="8.294"/>
	<circle display="inline" fill="#333333" cx="771.619" cy="863.241" r="8.294"/>
	<circle display="inline" fill="#333333" cx="171.283" cy="1253.616" r="8.294"/>
</g>
<g id="Layer_2_copy" display="none">
	<line display="inline" fill="none" stroke="#333333" stroke-miterlimit="10" x1="560.085" y1="40.624" x2="161.105" y2="61.623"/>
	<line display="inline" fill="none" stroke="#333333" stroke-miterlimit="10" x1="161.105" y1="60.123" x2="189.604" y2="331.609"/>
	
		<line display="inline" fill="none" stroke="#333333" stroke-miterlimit="10" x1="189.604" y1="331.609" x2="141.606" y2="603.096"/>
	<line display="inline" fill="none" stroke="#333333" stroke-miterlimit="10" x1="141.606" y1="603.096" x2="536.086" y2="523.6"/>
	<line display="inline" fill="none" stroke="#333333" stroke-miterlimit="10" x1="537.586" y1="523.6" x2="840.571" y2="654.093"/>
	
		<line display="inline" fill="none" stroke="#333333" stroke-miterlimit="10" x1="840.571" y1="654.093" x2="240.601" y2="822.085"/>
	<line display="inline" fill="none" stroke="#333333" stroke-miterlimit="10" x1="240.601" y1="822.085" x2="459.59" y2="922.58"/>
	<line display="inline" fill="none" stroke="#333333" stroke-miterlimit="10" x1="461.09" y1="922.58" x2="773.074" y2="862.583"/>
	
		<line display="inline" fill="none" stroke="#333333" stroke-miterlimit="10" x1="773.074" y1="862.58" x2="171.604" y2="1254.061"/>
</g>
</svg>
