<?xml version="1.0" encoding="utf-8"?>
<!-- Generator: Adobe Illustrator 16.0.3, SVG Export Plug-In . SVG Version: 6.00 Build 0)  -->
<!DOCTYPE svg PUBLIC "-//W3C//DTD SVG 1.1//EN" "http://www.w3.org/Graphics/SVG/1.1/DTD/svg11.dtd">
<svg version="1.1" xmlns="http://www.w3.org/2000/svg" xmlns:xlink="http://www.w3.org/1999/xlink" x="0px" y="0px" width="1000px"
	 height="1100px" viewBox="0 0 1000 1100" enable-background="new 0 0 1000 1100" xml:space="preserve">
<g id="Layer_11" display="none">
	<rect x="-41" y="-35" display="inline" fill="#F4F4E6" width="1060" height="1182"/>
</g>
<g id="Layer_1" display="none">
	<polygon display="inline" fill="#F6C41D" points="253.546,796.453 500,303.547 746.453,796.453 	"/>
</g>
<g id="Layer_4" display="none">
	<polyline display="inline" fill="#9FD4CD" points="253.634,1100 253.634,855.915 746.54,855.915 746.54,1100 	"/>
</g>
<g id="Layer_3" display="none">
	<path display="inline" fill="#E96225" d="M747.814,0.516c0,136.617-110.748,247.367-247.366,247.367S253.08,137.133,253.08,0.516"
		/>
</g>
<g id="Layer_1_copy">
	<polygon fill="#C9DE7D" points="265.198,902.891 620.093,193.105 974.983,902.891 	"/>
</g>
<g id="Layer_13">
	<polyline fill="#EE6970" points="37.035,1101.001 37.035,747.517 746.821,747.517 746.821,1101.001 	"/>
</g>
<g id="Layer_4_copy">
	<polygon fill="#C36346" points="746.821,747.517 342.885,747.517 265.198,902.891 746.821,902.891 	"/>
</g>
<g id="Layer_3_copy">
	<path fill="#5AC4BF" d="M842.643-1.001c0,196.73-159.479,356.209-356.207,356.209c-196.729,0-356.211-159.479-356.211-356.209"/>
</g>
<g id="Layer_22">
</g>
<g id="Layer_12">
	<path fill="#49B970" d="M620.093,193.105l-78.964,157.927c48.298-7.443,93.395-24.586,133.237-49.379L620.093,193.105z"/>
</g>
<g id="Layer_7" display="none">
	<circle display="inline" fill="#E96225" cx="-231.553" cy="259.516" r="247.367"/>
	<rect x="-510.366" y="559.915" display="inline" fill="#9FD4CD" width="492.906" height="492.906"/>
</g>
<g id="Layer_5">
	<circle fill="#333333" cx="496" cy="99.999" r="8.295"/>
	<circle fill="#333333" cx="691" cy="577.999" r="8.295"/>
	<circle fill="#333333" cx="335" cy="1029.999" r="8.294"/>
	<circle fill="#333333" cx="149.735" cy="377.771" r="8.295"/>
	<circle fill="#333333" cx="910.063" cy="968.006" r="8.294"/>
</g>
<g id="Layer_6">
	<line fill="none" stroke="#333333" stroke-miterlimit="10" x1="499" y1="106.999" x2="688.336" y2="571.999"/>
	<line fill="none" stroke="#333333" stroke-miterlimit="10" x1="685.333" y1="584.666" x2="340.333" y2="1023.666"/>
	<line fill="none" stroke="#333333" stroke-miterlimit="10" x1="496" y1="99.999" x2="149.728" y2="377.767"/>
	<line fill="none" stroke="#333333" stroke-miterlimit="10" x1="335" y1="1030" x2="910.064" y2="968.007"/>
</g>
<g id="Layer_2" display="none">
	<path display="inline" fill="#5AC4BF" d="M930.332,550.001c0,237.665-192.661,430.331-430.329,430.331
		c-237.667,0-430.335-192.666-430.335-430.331c0-237.667,192.668-430.334,430.335-430.334
		C737.671,119.667,930.332,312.334,930.332,550.001z"/>
</g>
<g id="Layer_16" display="none">
	<rect x="195.739" y="245.74" display="inline" fill="#EE6970" width="608.526" height="608.525"/>
</g>
<g id="Layer_15" display="none">
	<polygon display="inline" fill="#C9DE7D" points="195.739,854.266 500.003,245.738 804.266,854.266 	"/>
</g>
<g id="Layer_2_copy" display="none">
	<path display="inline" fill="#5AC4BF" d="M-15.668,522.002c0,237.664-192.661,430.33-430.329,430.33
		c-237.667,0-430.335-192.666-430.335-430.33c0-237.667,192.668-430.334,430.335-430.334
		C-208.329,91.667-15.668,284.334-15.668,522.002z"/>
</g>
<g id="Layer_16_copy_2" display="none">
	<rect x="-750.261" y="217.74" display="inline" fill="#EE6970" width="608.526" height="608.525"/>
</g>
<g id="Layer_15_copy" display="none">
	<polygon display="inline" fill="#C9DE7D" points="-750.261,826.266 -445.997,217.738 -141.734,826.266 	"/>
</g>
<g id="Layer_16_copy" display="none">
	<rect x="226.166" y="276.167" display="inline" fill="#777088" width="547.674" height="547.673"/>
</g>
<g id="Layer_14" display="none">
	<polygon display="inline" fill="#D57385" points="302.84,747.163 500.002,352.838 697.164,747.163 	"/>
</g>
<g id="Layer_18">
</g>
</svg>
